<?xml version="1.0" encoding="UTF-8"?>
<svg id="Laag_2" data-name="Laag 2" xmlns="http://www.w3.org/2000/svg" viewBox="0 0 342.86 546.68">
  <defs>
    <style>
      .cls-1 {
        fill: #e6eaff;
      }

      .cls-1, .cls-2, .cls-3 {
        fill-rule: evenodd;
      }

      .cls-2 {
        fill: #101018;
      }

      .cls-3 {
        fill: #818cf8;
      }
    </style>
  </defs>
  <g id="Layer_1" data-name="Layer 1">
    <g>
      <path class="cls-3" d="M171.43,461.24h41.7s17.57-20.25,27.7-40.21c0,0,42.89,17.87,81.61,11.02,0,0,20.26-78.92-34.55-128.36,0,0,48.85-192.4-116.45-284.43C6.13,111.29,54.97,303.69,54.97,303.69.17,353.13,20.43,432.06,20.43,432.06c38.72,6.85,81.61-11.02,81.61-11.02,10.13,19.95,27.7,40.21,27.7,40.21h41.7ZM171.43,194.09c15.63,0,28.29,12.67,28.29,28.29s-12.67,28.29-28.29,28.29-28.29-12.67-28.29-28.29,12.67-28.29,28.29-28.29Z"/>
      <path class="cls-2" d="M228.38,441.42c4.34-6.23,8.86-13.32,12.44-20.39,0,0,42.89,17.87,81.61,11.02,0,0,20.26-78.92-34.55-128.36,0,0,1.03-4.08,2.29-11.3h-7.48c6.18-30.42,5.97-70.06,1.85-98.91-9.68-67.74-41.97-121.31-97.28-158.37-55.31,37.05-87.6,90.63-97.28,158.37-4.47,31.3-4.34,75.31,3.57,106.46l5.61,22.09-16.92,15.27c-19,17.14-27.79,40.06-29.87,65.14-.35,4.21-.52,8.89-.47,13.72,15.29-1.54,31.21-5.56,43.18-10.48l32.34-13.51,15.88,31.3c4.04,7.97,9.56,16.44,15.41,24.31h57.12c3.93-5.28,7.71-10.84,10.99-16.34v9.97h1.58ZM171.43,194.09c15.63,0,28.29,12.67,28.29,28.29s-12.67,28.29-28.29,28.29-28.29-12.67-28.29-28.29,12.67-28.29,28.29-28.29Z"/>
      <path class="cls-1" d="M171.43,444.36h33.79c5.51-6.93,14.54-19.03,20.56-30.91l7.03-13.85,14.34,5.87c.1.04,30.34,12.64,60.95,11.21,2.81-21.39,4.04-68.4-31.5-100.45l-7.45-6.73,2.38-9.76c.12-.51,44.04-173.57-100.1-260.99C27.29,126.17,71.21,299.23,71.33,299.73l2.38,9.76-7.45,6.73c-35.53,32.06-34.3,79.06-31.5,100.45,30.6,1.43,60.85-11.17,60.95-11.21l14.34-5.87,7.03,13.85c6.02,11.87,15.05,23.97,20.56,30.91h33.79ZM213.12,478.13h-91.04l-5.08-5.87s-12.16-14.01-22.67-30.77c-17.28,5.28-47.89,12.31-76.81,7.19l-10.81-1.91-2.64-10.69c-.06-.24-20.96-81.69,32.54-138C28.95,256.59,9.2,90.32,163.25,4.55l8.18-4.55,8.18,4.55c154.05,85.77,134.3,252.03,126.64,293.52,53.5,56.31,32.6,137.76,32.54,138l-2.65,10.69-10.81,1.91c-28.92,5.11-59.53-1.91-76.81-7.19-10.51,16.76-22.62,30.72-22.67,30.77l-5.08,5.87h-7.65ZM171.43,177.2c12.4,0,23.67,5.05,31.88,13.23l.03.03.03.03c8.18,8.21,13.23,19.48,13.23,31.88s-5.05,23.67-13.23,31.88l-.03.03-.03.03c-8.21,8.18-19.48,13.23-31.88,13.23s-23.67-5.06-31.88-13.23l-.03-.03-.03-.03c-8.18-8.21-13.23-19.48-13.23-31.88s5.06-23.67,13.23-31.88l.03-.03.03-.03c8.21-8.18,19.48-13.23,31.88-13.23h0ZM179.5,214.25l.06.06c2.02,2.02,3.27,4.87,3.27,8.07s-1.25,6.05-3.27,8.07l-.06.07c-2.02,2.02-4.87,3.27-8.07,3.27s-6.05-1.25-8.07-3.27l-.07-.07c-2.02-2.02-3.27-4.87-3.27-8.07s1.25-6.05,3.27-8.07l.07-.06c2.02-2.02,4.87-3.27,8.07-3.27s6.05,1.25,8.07,3.27Z"/>
      <polyline class="cls-3" points="127.68 483.86 216.53 483.86 171.76 546.68"/>
    </g>
  </g>
</svg>